# xmcd
#
# Track frame offsets: 
#        150
#        14152
#        25154
#        36574
#        49949
#        63307
#        79938
#        95140
#        113678
#        125109
#        137651
#        148997
#        163463
#        177884
#        192221
#        202509
#        214268
#        225638
#        241169
#        254886
#
# Disc length: 3559 seconds
#
# Revision: 0
# Processed by: cddbd v1.5.1PL2 Copyright (c) Steve Scherf et al.
# Submitted via: ExactAudioCopy v0.95b3
#
DISCID=340de514
DTITLE=Various Artist - Country and Western From Nashville Tennessee
DYEAR=2005
DGENRE=Country
TTITLE0=Think I'll send Him Some Roses - Dave Dudley
TTITLE1=Hallo Darlin' - Bobby Bare
TTITLE2=A New Girl In Town - Buddy Meredith
TTITLE3=Home On The Range - Freddy Quinn
TTITLE4=If Only For A Moment - Linda Manning
TTITLE5=When My blue Moon Turns To Gold Again - Dave Dudley
TTITLE6=Lay Your Head Upon My Pilolow - Boby Bare
TTITLE7=Do You Think Of Me - Tom Stewart
TTITLE8=The Lonesome Truckdriver's Waltz - David Price
TTITLE9=Come Sundown - Bobby Bare
TTITLE10=I Wish You Were Here - Dave Dudley
TTITLE11=Leaving On A Jetplane - Bobby Bare
TTITLE12=Long Short Story - Tom Stewart
TTITLE13=Look What Love Has Done - Freddy Quinn
TTITLE14=Beautiful Love Song - Dave Dudley
TTITLE15=Please, Don´t Tell Me How The Story End - Bobby Bare
TTITLE16=I´ll Hold You Closer Than Love - Barbara Perry
TTITLE17=Where Have All The Seasons Gone - Bobba Bare
TTITLE18=The Hour Of Separation - Billy Grammar
TTITLE19=How Come It Took So Long To Say Goodbye - Dave Dudley
EXTD=
EXTT0=
EXTT1=
EXTT2=
EXTT3=
EXTT4=
EXTT5=
EXTT6=
EXTT7=
EXTT8=
EXTT9=
EXTT10=
EXTT11=
EXTT12=
EXTT13=
EXTT14=
EXTT15=
EXTT16=
EXTT17=
EXTT18=
EXTT19=
PLAYORDER=
